<?xml version="1.0" encoding="UTF-8" standalone="no"?>

<svg version="1.1" xmlns="http://www.w3.org/2000/svg"  style="display:none;">
    
<symbol id="github-icon" viewBox="0 0 48 48">
	<path id="XMLID_1_" d="M24,3.1c-11.6,0-21,9.4-21,21C3,33.4,9,41.3,17.4,44c1,0.2,1.4-0.5,1.4-1c0-0.5,0-2.2,0-3.9
		c-5.8,1.3-7.1-2.5-7.1-2.5c-1-2.4-2.3-3.1-2.3-3.1c-1.9-1.3,0.1-1.3,0.1-1.3c2.1,0.1,3.2,2.2,3.2,2.2c1.9,3.2,4.9,2.3,6.1,1.7
		c0.2-1.4,0.7-2.3,1.3-2.8c-4.7-0.5-9.6-2.3-9.6-10.4c0-2.3,0.8-4.2,2.2-5.6c-0.2-0.5-0.9-2.7,0.2-5.6c0,0,1.8-0.6,5.8,2.2
		c1.7-0.5,3.5-0.7,5.3-0.7c1.8,0,3.6,0.2,5.3,0.7c4-2.7,5.8-2.2,5.8-2.2c1.1,2.9,0.4,5,0.2,5.6c1.3,1.5,2.2,3.3,2.2,5.6
		c0,8.1-4.9,9.8-9.6,10.4c0.8,0.7,1.4,1.9,1.4,3.9c0,2.8,0,5.1,0,5.8c0,0.6,0.4,1.2,1.4,1C39,41.3,45,33.4,45,24.1
		C45,12.5,35.6,3.1,24,3.1L24,3.1z"/>
</symbol>

<symbol id="twitter-icon" viewBox="0 0 48 48"> 
	<path id="XMLID_1_" d="M44.9,11c-1.2,1.7-2.6,3.2-4.3,4.5c0,0.2,0,0.6,0,1.1c0,2.3-0.3,4.6-1,6.9s-1.7,4.5-3.1,6.6
		c-1.4,2.1-3,4-4.9,5.6c-1.9,1.6-4.2,2.9-6.9,3.9s-5.6,1.5-8.6,1.5c-4.8,0-9.2-1.3-13.2-3.9c0.6,0.1,1.3,0.1,2.1,0.1
		c4,0,7.6-1.2,10.7-3.7c-1.9,0-3.5-0.6-5-1.7c-1.5-1.1-2.5-2.5-3-4.3c0.6,0.1,1.1,0.1,1.6,0.1c0.8,0,1.5-0.1,2.3-0.3
		c-2-0.4-3.6-1.4-4.9-3c-1.3-1.6-2-3.4-2-5.5v-0.1c1.2,0.7,2.5,1,3.9,1.1c-1.2-0.8-2.1-1.8-2.8-3.1c-0.7-1.3-1-2.6-1-4.1
		c0-1.6,0.4-3,1.2-4.3c2.1,2.6,4.8,4.8,7.8,6.4s6.4,2.5,9.9,2.7c-0.1-0.7-0.2-1.3-0.2-2c0-2.4,0.8-4.4,2.5-6.1
		c1.7-1.7,3.7-2.5,6.1-2.5c2.5,0,4.6,0.9,6.3,2.7c1.9-0.4,3.8-1.1,5.5-2.1c-0.7,2-1.9,3.6-3.8,4.7C41.6,12.1,43.2,11.7,44.9,11
		L44.9,11z"/>
</symbol>
    
<symbol id="email-icon" viewBox="0 0 48 48"> 
	<path d="M40,8H8c-2.2,0-4,1.8-4,4l0,24c0,2.2,1.8,4,4,4h32c2.2,0,4-1.8,4-4V12C44,9.8,42.2,8,40,8z M40,16L24,26L8,16v-4l16,10
		l16-10V16z"/>
</symbol>

<symbol id="heart-icon" viewBox="0 0 20 20">
    <path id="heart" d="M17.19,4.155c-1.672-1.534-4.383-1.534-6.055,0L10,5.197L8.864,4.155c-1.672-1.534-4.382-1.534-6.054,0
	c-1.881,1.727-1.881,4.52,0,6.246L10,17l7.19-6.599C19.07,8.675,19.07,5.881,17.19,4.155z"/>
</symbol>
    
<symbol id="plus-icon" viewBox="0 0 1024 1024">
<path id="plus" d="M992 384h-352v-352c0-17.672-14.328-32-32-32h-192c-17.672 0-32 14.328-32 32v352h-352c-17.672 0-32 14.328-32 32v192c0 17.672 14.328 32 32 32h352v352c0 17.672 14.328 32 32 32h192c17.672 0 32-14.328 32-32v-352h352c17.672 0 32-14.328 32-32v-192c0-17.672-14.328-32-32-32z"></path>
</symbol>

<symbol id="menu-icon" viewBox="0 0 1024 1024">
<title>menu</title>
<path id="menu" d="M64 192h896v192h-896zM64 448h896v192h-896zM64 704h896v192h-896z"></path>
</symbol>

<symbol id="arrow-right-icon" viewBox="0 0 1024 1024">
<title>arrow-right2</title>
<path class="path1" d="M621.254 877.254l320-320c24.994-24.992 24.994-65.516 0-90.51l-320-320c-24.994-24.992-65.516-24.992-90.51 0-24.994 24.994-24.994 65.516 0 90.51l210.746 210.746h-613.49c-35.346 0-64 28.654-64 64s28.654 64 64 64h613.49l-210.746 210.746c-12.496 12.496-18.744 28.876-18.744 45.254s6.248 32.758 18.744 45.254c24.994 24.994 65.516 24.994 90.51 0z"></path>
</symbol>

<symbol id="calendar-icon" viewBox="0 0 1024 1024">
<title>calendar</title>
<path class="path1" d="M320 384h128v128h-128zM512 384h128v128h-128zM704 384h128v128h-128zM128 768h128v128h-128zM320 768h128v128h-128zM512 768h128v128h-128zM320 576h128v128h-128zM512 576h128v128h-128zM704 576h128v128h-128zM128 576h128v128h-128zM832 0v64h-128v-64h-448v64h-128v-64h-128v1024h960v-1024h-128zM896 960h-832v-704h832v704z"></path>
</symbol>
	
<symbol id="curriculum-icon" viewBox="0 0 48 48">
	<text id="XMLID_1_" transform="matrix(1 0 0 1 3 32.5968)" class="st0 st1">CV</text>
</symbol>

</svg>