<?xml version="1.0" encoding="UTF-8" standalone="no"?>

<svg version="1.1" xmlns="http://www.w3.org/2000/svg"  style="display:none;">
    
<symbol id="github-icon" viewBox="0 0 90.6 88.3">
    <path id="GitHub" d="M45.3,0C20.3,0,0,20.3,0,45.3c0,20,13,37,31,43c2.3,0.4,3.1-1,3.1-2.2c0-1.1,0-3.9-0.1-7.7
      c-12.6,2.7-15.3-6.1-15.3-6.1c-2.1-5.2-5-6.6-5-6.6c-4.1-2.8,0.3-2.8,0.3-2.8c4.5,0.3,6.9,4.7,6.9,4.7c4,6.9,10.6,4.9,13.2,3.8
      c0.4-2.9,1.6-4.9,2.9-6.1c-10.1-1.1-20.6-5-20.6-22.4c0-4.9,1.8-9,4.7-12.2c-0.5-1.1-2-5.8,0.4-12c0,0,3.8-1.2,12.5,4.6
      c3.6-1,7.5-1.5,11.3-1.5c3.8,0,7.7,0.5,11.3,1.5c8.6-5.9,12.4-4.6,12.4-4.6c2.5,6.2,0.9,10.8,0.5,12c2.9,3.2,4.7,7.2,4.7,12.2
      c0,17.4-10.6,21.2-20.7,22.3c1.6,1.4,3.1,4.2,3.1,8.4c0,6.1-0.1,10.9-0.1,12.4c0,1.2,0.8,2.6,3.1,2.2c18-6,30.9-23,30.9-43
      C90.6,20.3,70.3,0,45.3,0z"/>
</symbol>

<symbol id="twitter-icon" viewBox="0 0 89.9 73.1" > 
    <path id="Twitter" d="M89.9,8.7c-3.3,1.5-6.9,2.5-10.6,2.9c3.8-2.3,6.7-5.9,8.1-10.2C83.9,3.5,79.9,5,75.7,5.8
      C72.4,2.2,67.6,0,62.3,0C52.1,0,43.8,8.3,43.8,18.4c0,1.4,0.2,2.9,0.5,4.2C29,21.9,15.4,14.5,6.3,3.4c-1.6,2.7-2.5,5.9-2.5,9.3
      c0,6.4,3.3,12,8.2,15.4c-3-0.1-5.9-0.9-8.4-2.3c0,0.1,0,0.2,0,0.2c0,8.9,6.4,16.4,14.8,18.1c-1.5,0.4-3.2,0.6-4.9,0.6
      c-1.2,0-2.3-0.1-3.5-0.3c2.3,7.3,9.2,12.7,17.2,12.8C21,62.1,13,65,4.4,65c-1.5,0-3-0.1-4.4-0.3c8.2,5.2,17.9,8.3,28.3,8.3
      c33.9,0,52.5-28.1,52.5-52.5c0-0.8,0-1.6-0.1-2.4C84.3,15.6,87.5,12.4,89.9,8.7z"/>
</symbol>
    
<symbol id="email-icon" viewBox="0 0 90 65"> 
			<path id="Email" d="M81,0H9C4,0,0,3.7,0,8.1v48.8C0,61.3,4,65,9,65h72c5,0,9-3.7,9-8.1V8.1C90,3.7,86,0,81,0L81,0z M81,16.3
				L45,36.6L9,16.3V8.1l36,20.3L81,8.1V16.3L81,16.3z"/>

</symbol>

<symbol id="heart-icon" viewBox="0 0 20 20">
    <path id="heart" d="M17.19,4.155c-1.672-1.534-4.383-1.534-6.055,0L10,5.197L8.864,4.155c-1.672-1.534-4.382-1.534-6.054,0
	c-1.881,1.727-1.881,4.52,0,6.246L10,17l7.19-6.599C19.07,8.675,19.07,5.881,17.19,4.155z"/>
</symbol>
    
<symbol id="plus-icon" viewBox="0 0 1024 1024">
<path id="plus" d="M992 384h-352v-352c0-17.672-14.328-32-32-32h-192c-17.672 0-32 14.328-32 32v352h-352c-17.672 0-32 14.328-32 32v192c0 17.672 14.328 32 32 32h352v352c0 17.672 14.328 32 32 32h192c17.672 0 32-14.328 32-32v-352h352c17.672 0 32-14.328 32-32v-192c0-17.672-14.328-32-32-32z"></path>
</symbol>

<symbol id="menu-icon" viewBox="0 0 1024 1024">
<title>menu</title>
<path id="menu" d="M64 192h896v192h-896zM64 448h896v192h-896zM64 704h896v192h-896z"></path>
</symbol>

<symbol id="arrow-right-icon" viewBox="0 0 1024 1024">
<title>arrow-right2</title>
<path class="path1" d="M621.254 877.254l320-320c24.994-24.992 24.994-65.516 0-90.51l-320-320c-24.994-24.992-65.516-24.992-90.51 0-24.994 24.994-24.994 65.516 0 90.51l210.746 210.746h-613.49c-35.346 0-64 28.654-64 64s28.654 64 64 64h613.49l-210.746 210.746c-12.496 12.496-18.744 28.876-18.744 45.254s6.248 32.758 18.744 45.254c24.994 24.994 65.516 24.994 90.51 0z"></path>
</symbol>

<symbol id="calendar-icon" viewBox="0 0 1024 1024">
<title>calendar</title>
<path class="path1" d="M320 384h128v128h-128zM512 384h128v128h-128zM704 384h128v128h-128zM128 768h128v128h-128zM320 768h128v128h-128zM512 768h128v128h-128zM320 576h128v128h-128zM512 576h128v128h-128zM704 576h128v128h-128zM128 576h128v128h-128zM832 0v64h-128v-64h-448v64h-128v-64h-128v1024h960v-1024h-128zM896 960h-832v-704h832v704z"></path>
</symbol>
	
<symbol id="github-logo" viewBox="0 0 480.2 129.9">
	<title>GitHub Logo</title>
	<style type="text/css">
		.st0{fill:#100E0F;}
	</style>
	<g>
		<path class="st0" d="M92.5,55.6H52.1c-1,0-1.9,0.8-1.9,1.9v19.7c0,1,0.8,1.9,1.9,1.9h15.7v24.5c0,0-3.5,1.2-13.3,1.2
			c-11.5,0-27.6-4.2-27.6-39.6c0-35.4,16.8-40.1,32.5-40.1c13.6,0,19.5,2.4,23.2,3.6c1.2,0.4,2.3-0.8,2.3-1.9l4.5-19.1
			c0-0.5-0.2-1.1-0.7-1.5C87.2,5.2,78,0,54.6,0C27.6,0,0,11.5,0,66.6c0,55.1,31.6,63.3,58.3,63.3c22.1,0,35.5-9.4,35.5-9.4
			c0.6-0.3,0.6-1.1,0.6-1.4V57.5C94.4,56.4,93.5,55.6,92.5,55.6z"/>
		<path class="st0" d="M300.5,6.6c0-1-0.8-1.9-1.9-1.9h-22.7c-1,0-1.9,0.8-1.9,1.9c0,0,0,43.9,0,43.9h-35.4V6.6c0-1-0.8-1.9-1.9-1.9
			H214c-1,0-1.9,0.8-1.9,1.9v118.9c0,1,0.8,1.9,1.9,1.9h22.7c1,0,1.9-0.9,1.9-1.9V74.6H274c0,0-0.1,50.9-0.1,50.9
			c0,1,0.8,1.9,1.9,1.9h22.8c1,0,1.9-0.9,1.9-1.9V6.6z"/>
		<g>
			<g>
				<path class="st0" d="M135.4,22.2c0-8.2-6.6-14.8-14.7-14.8c-8.1,0-14.6,6.6-14.6,14.8c0,8.2,6.6,14.8,14.6,14.8
					C128.8,37,135.4,30.4,135.4,22.2z"/>
				<path class="st0" d="M133.8,100.4c0-3,0-54.9,0-54.9c0-1-0.8-1.9-1.9-1.9h-22.7c-1,0-2,1.1-2,2.1c0,0,0,66,0,78.6
					c0,2.3,1.4,3,3.3,3c0,0,9.7,0,20.4,0c2.2,0,2.8-1.1,2.8-3C133.8,120.1,133.8,103.6,133.8,100.4z"/>
			</g>
		</g>
		<path class="st0" d="M386.8,43.8h-22.5c-1,0-1.9,0.9-1.9,1.9V104c0,0-5.7,4.2-13.9,4.2c-8.1,0-10.3-3.7-10.3-11.7
			c0-8,0-50.8,0-50.8c0-1-0.8-1.9-1.9-1.9h-22.9c-1,0-1.9,0.9-1.9,1.9c0,0,0,31,0,54.7c0,23.6,13.2,29.4,31.3,29.4
			c14.9,0,26.9-8.2,26.9-8.2s0.6,4.3,0.8,4.8c0.3,0.5,0.9,1,1.7,1l14.6-0.1c1,0,1.9-0.9,1.9-1.9l0-79.8
			C388.7,44.7,387.9,43.8,386.8,43.8z"/>
		<path class="st0" d="M448.5,41.2c-12.8,0-21.5,5.7-21.5,5.7V6.6c0-1-0.8-1.9-1.9-1.9h-22.8c-1,0-1.9,0.8-1.9,1.9v118.9
			c0,1,0.8,1.9,1.9,1.9c0,0,15.8,0,15.8,0c0.7,0,1.3-0.4,1.6-1c0.4-0.6,1-5.5,1-5.5s9.3,8.8,27,8.8c20.7,0,32.6-10.5,32.6-47.2
			C480.2,45.9,461.3,41.2,448.5,41.2z M439.6,108.1c-7.8-0.2-13.1-3.8-13.1-3.8V66.7c0,0,5.2-3.2,11.7-3.8
			c8.1-0.7,15.9,1.7,15.9,21.1C454,104.4,450.5,108.5,439.6,108.1z"/>
		<path class="st0" d="M199.1,43.6h-17c0,0,0-22.5,0-22.5c0-0.9-0.4-1.3-1.4-1.3h-23.2c-0.9,0-1.4,0.4-1.4,1.3v23.3
			c0,0-11.6,2.8-12.4,3c-0.8,0.2-1.4,1-1.4,1.8v14.6c0,1.1,0.8,1.9,1.9,1.9h11.9c0,0,0,15.3,0,35.2c0,26.1,18.3,28.7,30.7,28.7
			c5.7,0,12.4-1.8,13.5-2.2c0.7-0.2,1.1-0.9,1.1-1.7l0-16.1c0-1-0.9-1.9-1.9-1.9c-1,0-3.5,0.4-6.2,0.4c-8.4,0-11.2-3.9-11.2-8.9
			c0-5,0-33.4,0-33.4h17c1,0,1.9-0.8,1.9-1.9V45.5C200.9,44.5,200.1,43.6,199.1,43.6z"/>
	</g>
</symbol>
</svg>