<?xml version="1.0" encoding="utf-8"?>

<svg version="1.1"
	 xmlns="http://www.w3.org/2000/svg" xmlns:xlink="http://www.w3.org/1999/xlink" 
	 x="0px" y="0px" viewBox="0 0 197.8 265" style="enable-background:new 0 0 197.8 265;"
	 xml:space="preserve">
<style type="text/css">
	.st0{fill:#fafafa;}
</style>
<defs>
</defs>
<path id="XMLID_16_" class="st0" d="M197.5,228.6c-0.8,0-1.5-0.5-1.7-1.2c0-0.5,0.1-1.1,0.1-1.6c1.1-15.1,1.2-32.8-1.6-49
	c0,0,0,0,0-0.1c-0.1-0.7-0.6-4.9-3.6-7.7c-0.9-0.8-2-1.5-3.3-1.9l-0.1,0c-1.1-0.6-2.4-1.3-3.8-2.1c0,0,0,0,0,0
	c-34.3-20.9-47.1-37.1-47.1-37.1l-0.1,0c0.5-3.4-1.7-6.6-3.1-7.5c-2.1-1.4-2.8-3.6-1.7-5.8c1.3-2.3,1.5-3.8,1.3-5.8h0.2
	c-0.8-3-3.2-5.8-4.5-6.8c-0.4-0.3-0.7-0.3-0.8-0.4c0,0,0,0.2,0,0.2h0c-0.9-1-2.4-1.5-4.4-2.2l0.8-2.3l0.1-0.3l4.1-12c0,0,0,0,0-0.1
	l0.1-0.3c0,0,0,0,0-0.1l0.2-0.6c0,0,0,0,0.1,0.1c0,0,0.1,0.1,0.1,0.1c0.1,0,0.1,0,0.2,0c0.5,0.2,0.2,0.3,1.3,0.5c0,0,0.1,0,0.1,0
	c0,0,0.1,0,0.1,0c0.1,0,0.2,0,0.2,0c0.3-0.1,0.4-0.3,0.7-0.6c0,0,0.1,0,0.1,0c0-0.1,0.2-0.3,0.3-0.4c0.1-0.1,0.1-0.3,0.2-0.4
	c0.7-0.9,1.3-1.9,1.6-2.4c0,0,0,0,0.1-0.1c0,0,0,0,0-0.1c0.1-0.1,0.2-0.3,0.3-0.4c0,0,0-0.1,0-0.1c2.5-4.6,3.3-9.2,3.2-13
	c0-0.3,0-0.5,0-0.8c21.3-3.8,38.6-10.2,48.6-18L96.2,0L8.7,51.4C19,58.9,36.5,64.7,57.9,67.8v3.6c0,0-0.2,0-0.3,0c0,0-0.3,0-0.4,0.1
	c0,0,0,0,0,0l2.7,6.2c0,0,0,0,0,0c1.9,5.4,3.8,6.9,5,7.2c0.1,0,0.2,0,0.3,0c0.2,0,0.3,0,0.4,0c0.1,0,0.1,0,0.2-0.1
	c0.2,0,0.3-0.1,0.4-0.1c0,0,0,0,0,0h0c0.1,0,0.2,0,0.3,0c0,0,0,0,0.1,0.1c0.1,0,0.1,0.1,0.2,0.2l0.2,0.5l4.7,14
	c-2.1,0.7-3.7,1.3-4.6,2.3h0c0,0,0-0.3,0-0.3c-0.1,0.1-0.4,0.1-0.8,0.4c-1.3,1.1-3.7,3.8-4.5,6.8h0.1c-0.2,1-0.3,0.9-0.4,1.4
	c-0.3,1.7-0.1,3.9,1.5,6.4c1.3,2.1,0.7,4.4-1.3,5.9c-0.2,0.1-0.4,0.3-0.6,0.6c-1.3,1.4-2.7,4.3-2.1,7.2l-0.5-0.3
	c0,0-12.4,15.6-45.6,35.8c0,0-0.1,0.1-0.1,0.1c-0.8,0.4-1.5,0.8-2.1,1.2l0,0c-1.3,0.4-2.4,1.1-3.3,1.9c-2.3,2.1-3.3,5-3.3,6.6v0
	c0,0-0.2,0-0.2,0c0,0-0.2,0-0.2,0c0,0,0,0.1,0,0.1c0,0.1,0,0.1,0,0.2c0,0.1,0,0.1,0,0.2c0,0,0,0.1,0,0.1c0,0.1,0,0.1,0,0.1l0,0.1
	c0,0.1,0,0.2,0,0.2c0,0.1,0,0.1,0,0.1c-0.2,1.2-0.4,2.5-0.6,3.7c-0.1,0.5-0.2,1.1-0.2,1.6c-0.1,0.5-0.1,1.1-0.2,1.6
	c-0.1,0.5-0.1,1-0.2,1.4c-0.1,0.9-0.2,1.8-0.3,2.8c0,0,0,0.1,0,0.1c-0.1,0.8-0.2,1.5-0.2,2.3c-0.1,1.4-0.2,2.8-0.3,4.1
	c-0.6,10.4-0.4,20.7,0.3,30.2c0.1,0.7,0.1,1.5,0.2,2.2c-0.3,0.5-0.9,0.9-1.6,0.9c-0.1,0-0.2,0-0.3,0c15.3,13.4,33.4,23.8,53.3,30.2
	c14.6,4.7,30.1,7.2,46.2,7.2s31.6-2.5,46.2-7.2c19.4-6.2,37.1-16.3,52.1-29.2C197.7,228.6,197.6,228.6,197.5,228.6z"/>
</svg>
